<?xml version="1.0" encoding="UTF-8" standalone="no"?><!DOCTYPE svg PUBLIC "-//W3C//DTD SVG 1.1//EN" "http://www.w3.org/Graphics/SVG/1.1/DTD/svg11.dtd"><svg width="100%" height="100%" viewBox="0 0 1067 1067" version="1.1" xmlns="http://www.w3.org/2000/svg" xmlns:xlink="http://www.w3.org/1999/xlink" xml:space="preserve" xmlns:serif="http://www.serif.com/" style="fill-rule:evenodd;clip-rule:evenodd;stroke-linecap:round;stroke-linejoin:round;stroke-miterlimit:1.5;"><g><g><path d="M913.083,433.949c5.559,19.391 9.679,39.188 12.318,59.229c25.256,-0.39 49.84,3.487 73.751,11.631c2.414,27.73 2.414,55.618 -0,83.349c-23.911,8.143 -48.495,12.02 -73.751,11.63c-4.658,35.384 -13.935,70.005 -27.593,102.978c22.068,12.29 41.42,27.94 58.055,46.948c-11.774,25.222 -25.718,49.374 -41.674,72.182c-24.779,-4.903 -48.008,-13.837 -69.686,-26.803c-21.726,28.314 -47.07,53.658 -75.385,75.384c12.967,21.678 21.901,44.907 26.804,69.686c-22.808,15.956 -46.96,29.9 -72.183,41.674c-19.008,-16.635 -34.657,-35.987 -46.948,-58.055c-32.972,13.658 -67.593,22.935 -102.977,27.593c0.39,25.257 -3.487,49.84 -11.631,73.751c-27.73,2.415 -55.618,2.415 -83.348,0c-8.144,-23.911 -12.021,-48.494 -11.631,-73.751c-35.384,-4.658 -70.005,-13.935 -102.977,-27.593c-12.291,22.068 -27.94,41.42 -46.948,58.055c-25.223,-11.774 -49.374,-25.718 -72.182,-41.674c4.902,-24.779 13.837,-48.008 26.803,-69.686c-28.315,-21.726 -53.659,-47.07 -75.385,-75.384c-21.678,12.966 -44.906,21.9 -69.686,26.803c-15.956,-22.808 -29.9,-46.96 -41.674,-72.182c16.635,-19.008 35.987,-34.658 58.055,-46.948c-13.658,-32.973 -22.934,-67.594 -27.593,-102.978c-25.256,0.39 -49.84,-3.487 -73.751,-11.63c-2.414,-27.731 -2.414,-55.619 0,-83.349c23.911,-8.144 48.495,-12.021 73.751,-11.631c4.659,-35.384 13.935,-70.004 27.593,-102.977c-22.068,-12.291 -41.42,-27.94 -58.055,-46.948c11.774,-25.223 25.718,-49.374 41.674,-72.182c24.78,4.902 48.008,13.837 69.686,26.803c21.726,-28.314 47.07,-53.658 75.385,-75.385c-12.966,-21.678 -21.901,-44.906 -26.803,-69.685c22.808,-15.957 46.959,-29.9 72.182,-41.675c19.008,16.636 34.657,35.987 46.948,58.055c32.972,-13.658 67.593,-22.934 102.977,-27.593c-0.39,-25.256 3.487,-49.84 11.631,-73.751c27.73,-2.414 55.618,-2.414 83.348,0c8.144,23.911 12.021,48.495 11.631,73.751c25.236,3.323 50.084,8.994 74.224,16.93c-23.362,41.554 -32.554,101.293 -17.463,154.057l-19.683,19.682c-27.787,-11.751 -58.332,-18.252 -90.383,-18.252c-128.306,0 -232.475,104.169 -232.475,232.475c0,128.307 104.169,232.475 232.475,232.475c128.306,0 232.475,-104.168 232.475,-232.475c-0,-25.815 -4.217,-50.653 -11.998,-73.857l24.819,-24.819c49.961,14.289 106.175,6.808 147.278,-13.858Zm-120.454,-283.426c1.1,0.754 2.198,1.515 3.293,2.281c-4.903,24.779 -13.837,48.007 -26.804,69.685c28.315,21.727 53.659,47.071 75.385,75.385c21.678,-12.966 44.907,-21.901 69.686,-26.803c3.907,5.586 7.694,11.252 11.357,16.995l-34.464,34.464c-32.348,32.348 -87.189,34.665 -119.537,2.317l-18.01,-18.009c-32.347,-32.348 -30.03,-87.19 2.318,-119.538l36.776,-36.777Z" style="fill:#656667;"/><path d="M913.083,433.949c5.559,19.391 9.679,39.188 12.318,59.229c25.256,-0.39 49.84,3.487 73.751,11.631c2.414,27.73 2.414,55.618 -0,83.349c-23.911,8.143 -48.495,12.02 -73.751,11.63c-4.658,35.384 -13.935,70.005 -27.593,102.978c22.068,12.29 41.42,27.94 58.055,46.948c-11.774,25.222 -25.718,49.374 -41.674,72.182c-24.779,-4.903 -48.008,-13.837 -69.686,-26.803c-21.726,28.314 -47.07,53.658 -75.385,75.384c12.967,21.678 21.901,44.907 26.804,69.686c-22.808,15.956 -46.96,29.9 -72.183,41.674c-19.008,-16.635 -34.657,-35.987 -46.948,-58.055c-32.972,13.658 -67.593,22.935 -102.977,27.593c0.39,25.257 -3.487,49.84 -11.631,73.751c-27.73,2.415 -55.618,2.415 -83.348,0c-8.144,-23.911 -12.021,-48.494 -11.631,-73.751c-35.384,-4.658 -70.005,-13.935 -102.977,-27.593c-12.291,22.068 -27.94,41.42 -46.948,58.055c-25.223,-11.774 -49.374,-25.718 -72.182,-41.674c4.902,-24.779 13.837,-48.008 26.803,-69.686c-28.315,-21.726 -53.659,-47.07 -75.385,-75.384c-21.678,12.966 -44.906,21.9 -69.686,26.803c-15.956,-22.808 -29.9,-46.96 -41.674,-72.182c16.635,-19.008 35.987,-34.658 58.055,-46.948c-13.658,-32.973 -22.934,-67.594 -27.593,-102.978c-25.256,0.39 -49.84,-3.487 -73.751,-11.63c-2.414,-27.731 -2.414,-55.619 0,-83.349c23.911,-8.144 48.495,-12.021 73.751,-11.631c4.659,-35.384 13.935,-70.004 27.593,-102.977c-22.068,-12.291 -41.42,-27.94 -58.055,-46.948c11.774,-25.223 25.718,-49.374 41.674,-72.182c24.78,4.902 48.008,13.837 69.686,26.803c21.726,-28.314 47.07,-53.658 75.385,-75.385c-12.966,-21.678 -21.901,-44.906 -26.803,-69.685c22.808,-15.957 46.959,-29.9 72.182,-41.675c19.008,16.636 34.657,35.987 46.948,58.055c32.972,-13.658 67.593,-22.934 102.977,-27.593c-0.39,-25.256 3.487,-49.84 11.631,-73.751c27.73,-2.414 55.618,-2.414 83.348,0c8.144,23.911 12.021,48.495 11.631,73.751c25.236,3.323 50.084,8.994 74.224,16.93c-23.362,41.554 -32.554,101.293 -17.463,154.057l-19.683,19.682c-27.787,-11.751 -58.332,-18.252 -90.383,-18.252c-128.306,0 -232.475,104.169 -232.475,232.475c0,128.307 104.169,232.475 232.475,232.475c128.306,0 232.475,-104.168 232.475,-232.475c-0,-25.815 -4.217,-50.653 -11.998,-73.857l24.819,-24.819c49.961,14.289 106.175,6.808 147.278,-13.858Zm-12.736,25.928c2.691,11.801 4.833,23.732 6.416,35.755c1.245,9.463 9.385,16.491 18.928,16.343c18.966,-0.293 37.517,2.047 55.653,7.02c1.093,18.31 1.093,36.667 0,54.976c-18.136,4.973 -36.687,7.313 -55.653,7.02c-9.543,-0.147 -17.683,6.881 -18.928,16.344c-4.444,33.755 -13.294,66.782 -26.323,98.237c-3.653,8.818 -0.118,18.973 8.221,23.618c16.572,9.229 31.467,20.531 44.687,33.905c-8.209,16.403 -17.387,32.301 -27.488,47.611c-18.193,-4.761 -35.428,-12.01 -51.707,-21.747c-8.191,-4.899 -18.754,-2.883 -24.564,4.69c-20.726,27.01 -44.904,51.188 -71.915,71.914c-7.572,5.81 -9.588,16.373 -4.689,24.564c9.737,16.279 16.986,33.514 21.747,51.707c-15.31,10.101 -31.208,19.279 -47.61,27.488c-13.376,-13.22 -24.677,-28.115 -33.907,-44.687c-4.644,-8.338 -14.8,-11.873 -23.618,-8.221c-31.454,13.029 -64.482,21.879 -98.237,26.323c-9.463,1.246 -16.49,9.385 -16.343,18.928c0.293,18.967 -2.047,37.517 -7.02,55.653c-18.309,1.093 -36.667,1.093 -54.976,0.001c-4.973,-18.136 -7.313,-36.687 -7.02,-55.654c0.147,-9.543 -6.88,-17.682 -16.343,-18.928c-33.755,-4.444 -66.782,-13.294 -98.237,-26.323c-8.818,-3.652 -18.974,-0.117 -23.618,8.221c-9.23,16.572 -20.531,31.467 -33.906,44.687c-16.403,-8.208 -32.301,-17.387 -47.611,-27.487c4.761,-18.193 12.01,-35.429 21.747,-51.708c4.9,-8.191 2.883,-18.754 -4.689,-24.564c-27.011,-20.726 -51.188,-44.904 -71.915,-71.914c-5.81,-7.573 -16.373,-9.589 -24.564,-4.69c-16.279,9.737 -33.514,16.986 -51.706,21.747c-10.101,-15.31 -19.28,-31.208 -27.489,-47.609c13.22,-13.376 28.116,-24.678 44.687,-33.907c8.339,-4.645 11.874,-14.8 8.221,-23.618c-13.029,-31.455 -21.878,-64.482 -26.322,-98.237c-1.246,-9.463 -9.386,-16.491 -18.929,-16.344c-18.966,0.293 -37.517,-2.047 -55.653,-7.02c-1.092,-18.309 -1.092,-36.667 -0,-54.976c18.136,-4.973 36.687,-7.313 55.653,-7.02c9.543,0.148 17.683,-6.88 18.929,-16.343c4.444,-33.755 13.293,-66.782 26.322,-98.237c3.653,-8.818 0.118,-18.974 -8.221,-23.618c-16.572,-9.229 -31.467,-20.531 -44.687,-33.906c8.209,-16.402 17.388,-32.301 27.488,-47.611c18.193,4.762 35.428,12.011 51.707,21.747c8.191,4.9 18.754,2.883 24.564,-4.689c20.727,-27.011 44.904,-51.188 71.915,-71.914c7.572,-5.811 9.589,-16.373 4.689,-24.565c-9.737,-16.278 -16.985,-33.514 -21.747,-51.706c15.31,-10.101 31.208,-19.28 47.61,-27.488c13.376,13.22 24.678,28.115 33.907,44.686c4.644,8.339 14.8,11.874 23.618,8.221c31.455,-13.029 64.482,-21.878 98.237,-26.322c9.463,-1.246 16.49,-9.385 16.343,-18.929c-0.293,-18.966 2.047,-37.517 7.02,-55.652c18.309,-1.093 36.667,-1.093 54.976,-0.001c4.973,18.136 7.313,36.687 7.02,55.653c-0.147,9.544 6.88,17.683 16.343,18.929c16.95,2.231 33.716,5.574 50.193,9.999c-16.515,40.121 -22.314,90.226 -11.836,136.623c-0,-0.002 -3.415,3.412 -3.415,3.412c-26.773,-9.738 -55.667,-15.055 -85.793,-15.055c-138.682,0 -251.274,112.592 -251.274,251.274c-0,138.682 112.592,251.274 251.274,251.274c138.682,0 251.274,-112.592 251.274,-251.274c0,-23.772 -3.311,-46.777 -9.492,-68.577c0,0.001 9.241,-9.24 9.241,-9.24c43.437,9.812 90.13,5.375 128.815,-8.788l-0,-0.001Zm-107.718,-309.354c1.1,0.754 2.198,1.515 3.293,2.281c-4.903,24.779 -13.837,48.007 -26.804,69.685c28.315,21.727 53.659,47.071 75.385,75.385c21.678,-12.966 44.907,-21.901 69.686,-26.803c3.907,5.586 7.694,11.252 11.357,16.995l-34.464,34.464c-32.348,32.348 -87.189,34.665 -119.537,2.317l-18.01,-18.009c-32.347,-32.348 -30.03,-87.19 2.318,-119.538l36.776,-36.777Zm-40.761,79.44c1.232,2.852 3.187,5.431 5.806,7.441c27.011,20.726 51.189,44.903 71.915,71.914c5.81,7.572 16.373,9.589 24.564,4.689c11.423,-6.832 23.316,-12.439 35.681,-16.816l-12.045,12.046c-25.156,25.156 -67.795,27.473 -92.951,2.317c-0,-0 -18.01,-18.01 -18.01,-18.01c-16.852,-16.852 -21.375,-41.549 -14.96,-63.581Z" style="fill:#fff;"/><path d="M630.575,312.578c-19.088,-66.74 0.673,-144.637 38.82,-182.784c38.146,-38.146 123.321,-65.184 190.06,-46.097l-103.602,103.603c-32.348,32.348 -34.665,87.19 -2.318,119.538l18.01,18.009c32.348,32.348 87.189,30.031 119.537,-2.317l103.603,-103.603c19.087,66.739 -7.95,151.914 -46.097,190.061c-38.147,38.146 -116.044,57.907 -182.783,38.819l-171.986,171.986l-135.23,-135.23l171.986,-171.985Z" style="fill:#a5a5a6;stroke:#565657;stroke-width:10.14px;"/><path d="M458.589,484.563l135.23,135.23l-232.193,232.193l-135.229,-135.23l232.192,-232.193Z" style="fill:#eae043;stroke:#858217;stroke-width:10.14px;"/><path d="M226.397,716.756l-114.628,245.499l249.857,-110.269l-135.229,-135.23Z" style="fill:#cdab7e;stroke:#655246;stroke-width:10.14px;"/><path d="M111.769,962.255l34.891,-74.726l41.162,41.162l-76.053,33.564Z" style="fill:#474647;stroke:#2d2a29;stroke-width:10.14px;"/><path d="M288.317,778.676l232.192,-232.193l73.31,73.31l-232.193,232.193l-249.857,110.269l176.548,-183.579Z" style="fill-opacity:0.21;"/><path d="M226.397,716.756l-114.628,245.499l249.857,-110.269l-135.229,-135.23Z" style="fill:none;stroke:#655246;stroke-width:10.14px;"/><path d="M458.589,484.563l135.23,135.23l-232.193,232.193l-135.229,-135.23l232.192,-232.193Z" style="fill:none;stroke:#858217;stroke-width:10.14px;"/><path d="M111.769,962.255l34.891,-74.726l41.162,41.162l-76.053,33.564Z" style="fill:none;stroke:#2d2a29;stroke-width:10.14px;"/></g><g><path d="M913.083,433.949c5.559,19.391 9.679,39.188 12.318,59.229c25.256,-0.39 49.84,3.487 73.751,11.631c2.414,27.73 2.414,55.618 -0,83.349c-23.911,8.143 -48.495,12.02 -73.751,11.63c-4.658,35.384 -13.935,70.005 -27.593,102.978c22.068,12.29 41.42,27.94 58.055,46.948c-11.774,25.222 -25.718,49.374 -41.674,72.182c-24.779,-4.903 -48.008,-13.837 -69.686,-26.803c-21.726,28.314 -47.07,53.658 -75.385,75.384c12.967,21.678 21.901,44.907 26.804,69.686c-22.808,15.956 -46.96,29.9 -72.183,41.674c-19.008,-16.635 -34.657,-35.987 -46.948,-58.055c-32.972,13.658 -67.593,22.935 -102.977,27.593c0.39,25.257 -3.487,49.84 -11.631,73.751c-27.73,2.415 -55.618,2.415 -83.348,0c-8.144,-23.911 -12.021,-48.494 -11.631,-73.751c-35.384,-4.658 -70.005,-13.935 -102.977,-27.593c-12.291,22.068 -27.94,41.42 -46.948,58.055c-25.223,-11.774 -49.374,-25.718 -72.182,-41.674c4.902,-24.779 13.837,-48.008 26.803,-69.686c-28.315,-21.726 -53.659,-47.07 -75.385,-75.384c-21.678,12.966 -44.906,21.9 -69.686,26.803c-15.956,-22.808 -29.9,-46.96 -41.674,-72.182c16.635,-19.008 35.987,-34.658 58.055,-46.948c-13.658,-32.973 -22.934,-67.594 -27.593,-102.978c-25.256,0.39 -49.84,-3.487 -73.751,-11.63c-2.414,-27.731 -2.414,-55.619 0,-83.349c23.911,-8.144 48.495,-12.021 73.751,-11.631c4.659,-35.384 13.935,-70.004 27.593,-102.977c-22.068,-12.291 -41.42,-27.94 -58.055,-46.948c11.774,-25.223 25.718,-49.374 41.674,-72.182c24.78,4.902 48.008,13.837 69.686,26.803c21.726,-28.314 47.07,-53.658 75.385,-75.385c-12.966,-21.678 -21.901,-44.906 -26.803,-69.685c22.808,-15.957 46.959,-29.9 72.182,-41.675c19.008,16.636 34.657,35.987 46.948,58.055c32.972,-13.658 67.593,-22.934 102.977,-27.593c-0.39,-25.256 3.487,-49.84 11.631,-73.751c27.73,-2.414 55.618,-2.414 83.348,0c8.144,23.911 12.021,48.495 11.631,73.751c25.236,3.323 50.084,8.994 74.224,16.93c-23.362,41.554 -32.554,101.293 -17.463,154.057l-19.683,19.682c-27.787,-11.751 -58.332,-18.252 -90.383,-18.252c-128.306,0 -232.475,104.169 -232.475,232.475c0,128.307 104.169,232.475 232.475,232.475c128.306,0 232.475,-104.168 232.475,-232.475c-0,-25.815 -4.217,-50.653 -11.998,-73.857l24.819,-24.819c49.961,14.289 106.175,6.808 147.278,-13.858Zm-120.454,-283.426c1.1,0.754 2.198,1.515 3.293,2.281c-4.903,24.779 -13.837,48.007 -26.804,69.685c28.315,21.727 53.659,47.071 75.385,75.385c21.678,-12.966 44.907,-21.901 69.686,-26.803c3.907,5.586 7.694,11.252 11.357,16.995l-34.464,34.464c-32.348,32.348 -87.189,34.665 -119.537,2.317l-18.01,-18.009c-32.347,-32.348 -30.03,-87.19 2.318,-119.538l36.776,-36.777Z" style="fill:#656667;"/><path d="M913.083,433.949c5.559,19.391 9.679,39.188 12.318,59.229c25.256,-0.39 49.84,3.487 73.751,11.631c2.414,27.73 2.414,55.618 -0,83.349c-23.911,8.143 -48.495,12.02 -73.751,11.63c-4.658,35.384 -13.935,70.005 -27.593,102.978c22.068,12.29 41.42,27.94 58.055,46.948c-11.774,25.222 -25.718,49.374 -41.674,72.182c-24.779,-4.903 -48.008,-13.837 -69.686,-26.803c-21.726,28.314 -47.07,53.658 -75.385,75.384c12.967,21.678 21.901,44.907 26.804,69.686c-22.808,15.956 -46.96,29.9 -72.183,41.674c-19.008,-16.635 -34.657,-35.987 -46.948,-58.055c-32.972,13.658 -67.593,22.935 -102.977,27.593c0.39,25.257 -3.487,49.84 -11.631,73.751c-27.73,2.415 -55.618,2.415 -83.348,0c-8.144,-23.911 -12.021,-48.494 -11.631,-73.751c-35.384,-4.658 -70.005,-13.935 -102.977,-27.593c-12.291,22.068 -27.94,41.42 -46.948,58.055c-25.223,-11.774 -49.374,-25.718 -72.182,-41.674c4.902,-24.779 13.837,-48.008 26.803,-69.686c-28.315,-21.726 -53.659,-47.07 -75.385,-75.384c-21.678,12.966 -44.906,21.9 -69.686,26.803c-15.956,-22.808 -29.9,-46.96 -41.674,-72.182c16.635,-19.008 35.987,-34.658 58.055,-46.948c-13.658,-32.973 -22.934,-67.594 -27.593,-102.978c-25.256,0.39 -49.84,-3.487 -73.751,-11.63c-2.414,-27.731 -2.414,-55.619 0,-83.349c23.911,-8.144 48.495,-12.021 73.751,-11.631c4.659,-35.384 13.935,-70.004 27.593,-102.977c-22.068,-12.291 -41.42,-27.94 -58.055,-46.948c11.774,-25.223 25.718,-49.374 41.674,-72.182c24.78,4.902 48.008,13.837 69.686,26.803c21.726,-28.314 47.07,-53.658 75.385,-75.385c-12.966,-21.678 -21.901,-44.906 -26.803,-69.685c22.808,-15.957 46.959,-29.9 72.182,-41.675c19.008,16.636 34.657,35.987 46.948,58.055c32.972,-13.658 67.593,-22.934 102.977,-27.593c-0.39,-25.256 3.487,-49.84 11.631,-73.751c27.73,-2.414 55.618,-2.414 83.348,0c8.144,23.911 12.021,48.495 11.631,73.751c25.236,3.323 50.084,8.994 74.224,16.93c-23.362,41.554 -32.554,101.293 -17.463,154.057l-19.683,19.682c-27.787,-11.751 -58.332,-18.252 -90.383,-18.252c-128.306,0 -232.475,104.169 -232.475,232.475c0,128.307 104.169,232.475 232.475,232.475c128.306,0 232.475,-104.168 232.475,-232.475c-0,-25.815 -4.217,-50.653 -11.998,-73.857l24.819,-24.819c49.961,14.289 106.175,6.808 147.278,-13.858Zm-12.736,25.928c2.691,11.801 4.833,23.732 6.416,35.755c1.245,9.463 9.385,16.491 18.928,16.343c18.966,-0.293 37.517,2.047 55.653,7.02c1.093,18.31 1.093,36.667 0,54.976c-18.136,4.973 -36.687,7.313 -55.653,7.02c-9.543,-0.147 -17.683,6.881 -18.928,16.344c-4.444,33.755 -13.294,66.782 -26.323,98.237c-3.653,8.818 -0.118,18.973 8.221,23.618c16.572,9.229 31.467,20.531 44.687,33.905c-8.209,16.403 -17.387,32.301 -27.488,47.611c-18.193,-4.761 -35.428,-12.01 -51.707,-21.747c-8.191,-4.899 -18.754,-2.883 -24.564,4.69c-20.726,27.01 -44.904,51.188 -71.915,71.914c-7.572,5.81 -9.588,16.373 -4.689,24.564c9.737,16.279 16.986,33.514 21.747,51.707c-15.31,10.101 -31.208,19.279 -47.61,27.488c-13.376,-13.22 -24.677,-28.115 -33.907,-44.687c-4.644,-8.338 -14.8,-11.873 -23.618,-8.221c-31.454,13.029 -64.482,21.879 -98.237,26.323c-9.463,1.246 -16.49,9.385 -16.343,18.928c0.293,18.967 -2.047,37.517 -7.02,55.653c-18.309,1.093 -36.667,1.093 -54.976,0.001c-4.973,-18.136 -7.313,-36.687 -7.02,-55.654c0.147,-9.543 -6.88,-17.682 -16.343,-18.928c-33.755,-4.444 -66.782,-13.294 -98.237,-26.323c-8.818,-3.652 -18.974,-0.117 -23.618,8.221c-9.23,16.572 -20.531,31.467 -33.906,44.687c-16.403,-8.208 -32.301,-17.387 -47.611,-27.487c4.761,-18.193 12.01,-35.429 21.747,-51.708c4.9,-8.191 2.883,-18.754 -4.689,-24.564c-27.011,-20.726 -51.188,-44.904 -71.915,-71.914c-5.81,-7.573 -16.373,-9.589 -24.564,-4.69c-16.279,9.737 -33.514,16.986 -51.706,21.747c-10.101,-15.31 -19.28,-31.208 -27.489,-47.609c13.22,-13.376 28.116,-24.678 44.687,-33.907c8.339,-4.645 11.874,-14.8 8.221,-23.618c-13.029,-31.455 -21.878,-64.482 -26.322,-98.237c-1.246,-9.463 -9.386,-16.491 -18.929,-16.344c-18.966,0.293 -37.517,-2.047 -55.653,-7.02c-1.092,-18.309 -1.092,-36.667 -0,-54.976c18.136,-4.973 36.687,-7.313 55.653,-7.02c9.543,0.148 17.683,-6.88 18.929,-16.343c4.444,-33.755 13.293,-66.782 26.322,-98.237c3.653,-8.818 0.118,-18.974 -8.221,-23.618c-16.572,-9.229 -31.467,-20.531 -44.687,-33.906c8.209,-16.402 17.388,-32.301 27.488,-47.611c18.193,4.762 35.428,12.011 51.707,21.747c8.191,4.9 18.754,2.883 24.564,-4.689c20.727,-27.011 44.904,-51.188 71.915,-71.914c7.572,-5.811 9.589,-16.373 4.689,-24.565c-9.737,-16.278 -16.985,-33.514 -21.747,-51.706c15.31,-10.101 31.208,-19.28 47.61,-27.488c13.376,13.22 24.678,28.115 33.907,44.686c4.644,8.339 14.8,11.874 23.618,8.221c31.455,-13.029 64.482,-21.878 98.237,-26.322c9.463,-1.246 16.49,-9.385 16.343,-18.929c-0.293,-18.966 2.047,-37.517 7.02,-55.652c18.309,-1.093 36.667,-1.093 54.976,-0.001c4.973,18.136 7.313,36.687 7.02,55.653c-0.147,9.544 6.88,17.683 16.343,18.929c16.95,2.231 33.716,5.574 50.193,9.999c-16.515,40.121 -22.314,90.226 -11.836,136.623c-0,-0.002 -3.415,3.412 -3.415,3.412c-26.773,-9.738 -55.667,-15.055 -85.793,-15.055c-138.682,0 -251.274,112.592 -251.274,251.274c-0,138.682 112.592,251.274 251.274,251.274c138.682,0 251.274,-112.592 251.274,-251.274c0,-23.772 -3.311,-46.777 -9.492,-68.577c0,0.001 9.241,-9.24 9.241,-9.24c43.437,9.812 90.13,5.375 128.815,-8.788l-0,-0.001Zm-107.718,-309.354c1.1,0.754 2.198,1.515 3.293,2.281c-4.903,24.779 -13.837,48.007 -26.804,69.685c28.315,21.727 53.659,47.071 75.385,75.385c21.678,-12.966 44.907,-21.901 69.686,-26.803c3.907,5.586 7.694,11.252 11.357,16.995l-34.464,34.464c-32.348,32.348 -87.189,34.665 -119.537,2.317l-18.01,-18.009c-32.347,-32.348 -30.03,-87.19 2.318,-119.538l36.776,-36.777Zm-40.761,79.44c1.232,2.852 3.187,5.431 5.806,7.441c27.011,20.726 51.189,44.903 71.915,71.914c5.81,7.572 16.373,9.589 24.564,4.689c11.423,-6.832 23.316,-12.439 35.681,-16.816l-12.045,12.046c-25.156,25.156 -67.795,27.473 -92.951,2.317c-0,-0 -18.01,-18.01 -18.01,-18.01c-16.852,-16.852 -21.375,-41.549 -14.96,-63.581Z" style="fill:#fff;"/><path d="M630.575,312.578c-19.088,-66.74 0.673,-144.637 38.82,-182.784c38.146,-38.146 123.321,-65.184 190.06,-46.097l-103.602,103.603c-32.348,32.348 -34.665,87.19 -2.318,119.538l18.01,18.009c32.348,32.348 87.189,30.031 119.537,-2.317l103.603,-103.603c19.087,66.739 -7.95,151.914 -46.097,190.061c-38.147,38.146 -116.044,57.907 -182.783,38.819l-171.986,171.986l-135.23,-135.23l171.986,-171.985Z" style="fill:#a5a5a6;stroke:#565657;stroke-width:10.14px;"/><path d="M458.589,484.563l135.23,135.23l-232.193,232.193l-135.229,-135.23l232.192,-232.193Z" style="fill:#eae043;stroke:#858217;stroke-width:10.14px;"/><path d="M226.397,716.756l-114.628,245.499l249.857,-110.269l-135.229,-135.23Z" style="fill:#cdab7e;stroke:#655246;stroke-width:10.14px;"/><path d="M111.769,962.255l34.891,-74.726l41.162,41.162l-76.053,33.564Z" style="fill:#474647;stroke:#2d2a29;stroke-width:10.14px;"/><path d="M288.317,778.676l232.192,-232.193l73.31,73.31l-232.193,232.193l-249.857,110.269l176.548,-183.579Z" style="fill-opacity:0.21;"/><path d="M226.397,716.756l-114.628,245.499l249.857,-110.269l-135.229,-135.23Z" style="fill:none;stroke:#655246;stroke-width:10.14px;"/><path d="M458.589,484.563l135.23,135.23l-232.193,232.193l-135.229,-135.23l232.192,-232.193Z" style="fill:none;stroke:#858217;stroke-width:10.14px;"/><path d="M111.769,962.255l34.891,-74.726l41.162,41.162l-76.053,33.564Z" style="fill:none;stroke:#2d2a29;stroke-width:10.14px;"/></g></g></svg>